<svg xmlns="http://www.w3.org/2000/svg" width="24" height="24" viewBox="0 0 24 24"><defs><style>.a,.b{fill:none;}.c,.d{stroke:none;}.d{fill:#fff;}</style></defs><path class="a" d="M0,0H24V24H0Z"/><g class="b"><path class="c" d="M6,19a2.006,2.006,0,0,0,2,2h8a2.006,2.006,0,0,0,2-2V7H6ZM19,4H15.5l-1-1h-5l-1,1H5V6H19Z"/><path class="d" d="M 16 19.5 C 16.27103042602539 19.5 16.5 19.27103042602539 16.5 19 L 16.5 8.5 L 7.5 8.5 L 7.5 19 C 7.5 19.27103042602539 7.728970050811768 19.5 8 19.5 L 16 19.5 M 16 21 L 8 21 C 6.900000095367432 21 6 20.10000038146973 6 19 L 6 7 L 18 7 L 18 19 C 18 20.10000038146973 17.10000038146973 21 16 21 Z M 19 6 L 5 6 L 5 4 L 8.5 4 L 9.5 3 L 14.5 3 L 15.5 4 L 19 4 L 19 6 Z"/></g></svg>