<svg id="Layer_1" data-name="Layer 1" xmlns="http://www.w3.org/2000/svg" viewBox="0 0 311.7 72"><defs><style>.cls-1{fill:#35454c;}</style></defs><path class="cls-1" d="M37.52,27.89c-3-5.58-9.13-8.62-15.72-8.62C8.11,19.27,0,29.41,0,45.63S8.11,72,21.29,72A19.08,19.08,0,0,0,38,62.87V71h9.12V0H37.52Zm-13.69,36h-.51c-7.6,0-13.68-6.09-13.68-18.26s6.08-18.25,13.68-18.25h.51c7.61,0,13.69,6.59,13.69,18.25S31.44,63.89,23.83,63.89Z" transform="translate(0)"/><path class="cls-1" d="M76,19.27c-13.69,0-24.34,10.65-24.34,26.36C51.63,61.86,61.77,72,76,72s24.34-10.14,24.34-26.37C100.31,29.92,89.66,19.27,76,19.27Zm.51,44.62h-1c-8.11,0-14.2-6.59-14.2-18.26s6.09-18.25,14.2-18.25h1c8.11,0,14.19,6.59,14.19,18.25S84.59,63.89,76.48,63.89Z" transform="translate(0)"/><polygon class="cls-1" points="138.57 20.28 123.86 61.55 109.16 20.28 99.22 20.28 117.98 70.99 129.65 70.99 148.41 20.28 138.57 20.28"/><path class="cls-1" d="M171.53,19.27c-12.07,0-23.63,8.72-23.63,26.26C147.9,63.28,159.36,72,172,72c10.44,0,19.27-5.58,20.89-16H183.3c-1,5.37-5.58,7.91-11,7.91-6.89,0-14.19-5.07-14.8-16.73H193V42.09C193,29.11,184.51,19.27,171.53,19.27ZM158.25,39c1.92-8.62,7.6-11.66,12.78-11.66h1c6.89,0,11.26,5.07,11.26,11.66Z" transform="translate(0)"/><path class="cls-1" d="M214.33,58.51V28.6H226.5V20.28H214.33V3.85H204.7V20.28H193.54V28.6H204.7V60.34Q204.7,71,215.35,71H228V62.57h-9.63C215.35,62.57,214.33,61.56,214.33,58.51Z" transform="translate(0)"/><path class="cls-1" d="M274.17,38.54c0-10.35-7.1-19.27-20.59-19.27-11.46,0-19.87,6.39-20.48,15.72h9.63c.61-5.07,5.17-7.61,10.65-7.61h.5c6.6,0,10.65,4.06,10.65,11.16v1.62l-14,1.11c-8.22.71-18.46,4.16-18.46,15.72,0,8.62,7.1,15,16.73,15,8.12,0,14.2-4.56,16.23-9.13a55.8,55.8,0,0,0,.51,8.12h9.12a87.25,87.25,0,0,1-.5-11.16Zm-9.64,14.19c0,6.09-7.6,11.16-13.69,11.16h-1c-4.67,0-8.11-3.15-8.11-7.3,0-4.67,4.26-7.51,10.14-8l12.67-1Z" transform="translate(0)"/><rect class="cls-1" x="282.29" y="20.28" width="9.63" height="50.7"/><rect class="cls-1" x="281.78" width="10.65" height="11.16"/><rect class="cls-1" x="302.06" width="9.63" height="70.99"/></svg>