<svg id="Layer_1" data-name="Layer 1" xmlns="http://www.w3.org/2000/svg" viewBox="0 0 172.58 172.58"><defs><style>.cls-1{fill:#b97229;}.cls-2{fill:#fff;}</style></defs><rect class="cls-1" width="172.58" height="172.58"/><path class="cls-2" d="M46,77c-3-5.57-9.13-8.62-15.72-8.62C16.61,68.36,8.5,78.5,8.5,94.73s8.11,26.37,21.29,26.37A19.1,19.1,0,0,0,46.53,112v8.11h9.12v-71H46ZM32.33,113h-.51c-7.6,0-13.69-6.08-13.69-18.25s6.09-18.25,13.69-18.25h.51C39.94,76.48,46,83.07,46,94.73S39.94,113,32.33,113Z" transform="translate(1.21 1.21)"/><polygon class="cls-2" points="84.57 111.86 69.87 70.58 59.93 70.58 78.69 121.29 90.35 121.29 109.11 70.58 99.28 70.58 84.57 111.86"/><path class="cls-2" d="M131.75,107.61V77.69h12.17V69.38H131.75V53h-9.63V69.38H111v8.31h11.16v31.74q0,10.65,10.64,10.65h12.68v-8.42h-9.63C132.76,111.66,131.75,110.65,131.75,107.61Z" transform="translate(1.21 1.21)"/><rect class="cls-2" x="153.27" y="50.3" width="9.63" height="70.99"/></svg>