<svg xmlns="http://www.w3.org/2000/svg" xmlns:xlink="http://www.w3.org/1999/xlink" width="91" height="91" viewBox="0 0 91 91"><defs><style>.a{fill:#b66e23;}.b{fill:#fff;}.c{filter:url(#a);}</style><filter id="a" x="0" y="0" width="91" height="91" filterUnits="userSpaceOnUse"><feOffset dy="15" input="SourceAlpha"/><feGaussianBlur stdDeviation="7.5" result="b"/><feFlood flood-opacity="0.071"/><feComposite operator="in" in2="b"/><feComposite in="SourceGraphic"/></filter></defs><g transform="translate(-868.5 -346.485)"><g class="c" transform="matrix(1, 0, 0, 1, 868.5, 346.48)"><circle class="a" cx="23" cy="23" r="23" transform="translate(22.5 7.5)"/></g><g transform="translate(905 367.985)"><g transform="translate(4.289 0)"><g transform="translate(0)"><path class="b" d="M137.65,5.111,133.361.21a.611.611,0,0,0-.922,0l-4.289,4.9a.612.612,0,0,0,.461,1.016h2.451v5.855a.613.613,0,0,0,.613.613h2.451a.613.613,0,0,0,.613-.613V6.127h2.451a.612.612,0,0,0,.461-1.016Z" transform="translate(-127.998)"/></g></g><g transform="translate(0 11.37)"><path class="b" d="M31.931,352v3.676H18.451V352H16v4.9a1.225,1.225,0,0,0,1.225,1.225H33.157a1.224,1.224,0,0,0,1.225-1.225V352Z" transform="translate(-16 -352)"/></g></g></g></svg>