<svg xmlns="http://www.w3.org/2000/svg" width="46" height="46" viewBox="0 0 46 46">
  <g id="Group_101" data-name="Group 101" transform="translate(-1731 -446)">
    <g id="Rectangle_999" data-name="Rectangle 999" transform="translate(1731 446)" fill="#fff" stroke="#ba7124" stroke-width="1">
      <rect width="46" height="46" rx="10" stroke="none"/>
      <rect x="0.5" y="0.5" width="45" height="45" rx="9.5" fill="none"/>
    </g>
    <g id="Group_1723" data-name="Group 1723" transform="translate(1742.5 457)">
      <path id="Path_469" data-name="Path 469" d="M17,21H7a2,2,0,0,1-2-2V5A2,2,0,0,1,7,3h7l5,5V19A2,2,0,0,1,17,21Z" fill="#ba7124" stroke="#ba7124" stroke-linecap="round" stroke-linejoin="round" stroke-width="1.5"/>
      <path id="Path_467" data-name="Path 467" d="M0,0H24V24H0Z" fill="none"/>
      <path id="Path_468" data-name="Path 468" d="M14,3V7a1,1,0,0,0,1,1h4" fill="#fff"/>
      <line id="Line_307" data-name="Line 307" y2="6" transform="translate(12 11)" fill="none" stroke="#fff" stroke-linecap="round" stroke-linejoin="round" stroke-width="1.5"/>
      <path id="Path_470" data-name="Path 470" d="M9,14l3,3,3-3" fill="none" stroke="#fff" stroke-linecap="round" stroke-linejoin="round" stroke-width="1.5"/>
    </g>
  </g>
</svg>
