<svg xmlns="http://www.w3.org/2000/svg" xmlns:xlink="http://www.w3.org/1999/xlink" width="66" height="66" viewBox="0 0 66 66"><defs><style>.a{fill:#b46d23;}.b{fill:#fff;}.c{filter:url(#a);}</style><filter id="a" x="0" y="0" width="66" height="66" filterUnits="userSpaceOnUse"><feOffset dy="10" input="SourceAlpha"/><feGaussianBlur stdDeviation="5" result="b"/><feFlood flood-opacity="0.161"/><feComposite operator="in" in2="b"/><feComposite in="SourceGraphic"/></filter></defs><g transform="translate(-1594.641 -184.64)"><g class="c" transform="matrix(1, 0, 0, 1, 1594.64, 184.64)"><circle class="a" cx="18" cy="18" r="18" transform="translate(15 5)"/></g><g transform="translate(1618.296 200.388)"><g transform="translate(0 0)"><g transform="translate(0 0)"><path class="b" d="M16.452,49.7H14.5l-1.076-1.625a2.237,2.237,0,0,0-1.848-.975H7.109a2.237,2.237,0,0,0-1.848.975L4.184,49.7H2.234A2.228,2.228,0,0,0,0,51.938v7.881a2.228,2.228,0,0,0,2.234,2.234H16.452a2.228,2.228,0,0,0,2.234-2.234V51.938A2.228,2.228,0,0,0,16.452,49.7ZM9.343,60.225a5.027,5.027,0,1,1,5.037-5.017A5.036,5.036,0,0,1,9.343,60.225Zm6.824-7.373h-.894a.661.661,0,0,1,0-1.32h.812a.659.659,0,0,1,.691.63A.643.643,0,0,1,16.167,52.852Z" transform="translate(0 -47.104)"/></g></g><g transform="translate(5.911 4.675)"><path class="b" d="M168.3,180.736a3.419,3.419,0,1,0,3.432,3.407A3.439,3.439,0,0,0,168.3,180.736Z" transform="translate(-164.864 -180.736)"/></g></g></g></svg>