<svg xmlns="http://www.w3.org/2000/svg" width="17.322" height="17.322" viewBox="0 0 17.322 17.322"><defs><style>.a,.b{fill:#fff;}.b{fill-rule:evenodd;}</style></defs><g transform="translate(0 0)"><path class="a" d="M18.274,2.634a2.165,2.165,0,0,0-3.062,0L7,10.847v3.062h3.062L18.274,5.7A2.165,2.165,0,0,0,18.274,2.634Z" transform="translate(-1.587 -2)"/><path class="b" d="M2,6.165A2.165,2.165,0,0,1,4.165,4H8.5a1.083,1.083,0,0,1,0,2.165H4.165V16.991H14.991v-4.33a1.083,1.083,0,1,1,2.165,0v4.33a2.165,2.165,0,0,1-2.165,2.165H4.165A2.165,2.165,0,0,1,2,16.991Z" transform="translate(-2 -1.835)"/></g></svg>