<svg id="Group_19627" data-name="Group 19627" xmlns="http://www.w3.org/2000/svg" width="24" height="24" viewBox="0 0 24 24">
  <path id="Path_205" data-name="Path 205" d="M0,0H24V24H0Z" fill="none"/>
  <path id="Path_206" data-name="Path 206" d="M22.06,9.673l-6.423-5a3.211,3.211,0,0,0-3.943,0l-6.424,5A3.21,3.21,0,0,0,4.03,12.208V22.88a2.409,2.409,0,0,0,2.409,2.409H20.892A2.409,2.409,0,0,0,23.3,22.88V12.208A3.21,3.21,0,0,0,22.06,9.673" transform="translate(-1.635 -2.644)" fill="none" stroke="#ba7124" stroke-linecap="round" stroke-linejoin="round" stroke-width="1.5"/>
  <rect id="Rectangle_7387" data-name="Rectangle 7387" width="4" height="4" rx="1" transform="translate(6 14)" fill="none" stroke="#ba7124" stroke-linecap="round" stroke-linejoin="round" stroke-width="1.5"/>
  <rect id="Rectangle_7388" data-name="Rectangle 7388" width="4" height="4" rx="1" transform="translate(14 14)" fill="none" stroke="#ba7124" stroke-linecap="round" stroke-linejoin="round" stroke-width="1.5"/>
  <rect id="Rectangle_7389" data-name="Rectangle 7389" width="4" height="4" rx="1" transform="translate(10 7)" fill="none" stroke="#ba7124" stroke-linecap="round" stroke-linejoin="round" stroke-width="1.5"/>
</svg>
