<svg xmlns="http://www.w3.org/2000/svg" width="21.759" height="21.759" viewBox="0 0 21.759 21.759"><defs><style>.a{fill:#32444b;stroke:#31434a;stroke-width:0.3px;}</style></defs><g transform="translate(-68.533 -82.756) rotate(45)"><g transform="translate(117.334)"><path class="a" d="M126.02,4.571V15.086a3.657,3.657,0,0,1-7.314,0V3.657a2.286,2.286,0,0,1,4.571,0v9.6a.914.914,0,0,1-1.829,0V4.571h-1.371v8.686a2.286,2.286,0,1,0,4.571,0v-9.6a3.657,3.657,0,1,0-7.314,0V15.086a5.029,5.029,0,1,0,10.057,0V4.571Z" transform="translate(-117.334)"/></g></g></svg>